<?xml version="1.0" standalone="no"?>
<!DOCTYPE svg PUBLIC "-//W3C//DTD SVG 20010904//EN"
 "http://www.w3.org/TR/2001/REC-SVG-20010904/DTD/svg10.dtd">
<svg version="1.0" xmlns="http://www.w3.org/2000/svg"
 width="128.000000pt" height="128.000000pt" viewBox="0 0 128.000000 128.000000"
 preserveAspectRatio="xMidYMid meet">

<g transform="translate(0.000000,128.000000) scale(0.100000,-0.100000)"
fill="#000000" stroke="none">
<path d="M383 1265 c-267 -72 -434 -344 -368 -598 48 -185 187 -324 372 -372
108 -28 232 -13 337 41 l50 25 165 -164 c184 -182 203 -197 244 -197 40 0 97
57 97 97 0 41 -15 60 -197 244 l-164 165 25 50 c146 284 -14 627 -331 709 -70
18 -161 18 -230 0z m198 -45 c187 -36 330 -184 361 -376 48 -288 -218 -554
-506 -506 -198 32 -345 179 -378 376 -49 297 225 562 523 506z m341 -787 c35
-33 35 -40 1 -75 -34 -35 -43 -35 -78 2 l-29 30 34 35 c19 19 36 35 39 35 3 0
18 -12 33 -27z m196 -196 c62 -63 112 -122 112 -132 0 -25 -29 -55 -53 -55
-20 0 -247 215 -247 234 0 14 51 66 65 66 6 0 61 -51 123 -113z"/>
<path d="M403 1165 c-159 -43 -265 -159 -295 -325 -22 -116 23 -252 112 -340
88 -89 224 -134 340 -112 178 33 299 154 332 332 22 115 -23 252 -110 339 -56
56 -107 85 -189 106 -70 18 -121 18 -190 0z m242 -69 c70 -32 140 -102 173
-174 22 -48 27 -71 27 -142 0 -104 -29 -174 -100 -245 -71 -71 -141 -100 -245
-100 -104 0 -174 29 -245 100 -71 71 -100 141 -100 245 0 71 5 94 27 142 44
95 136 173 235 198 61 15 167 4 228 -24z"/>
<path d="M484 1065 c-8 -21 4 -35 30 -35 71 0 160 -56 206 -131 20 -34 34 -47
45 -43 23 9 18 35 -15 87 -36 57 -97 102 -163 122 -64 19 -96 19 -103 0z"/>
<path d="M755 790 c-4 -7 -3 -16 3 -22 14 -14 45 -2 40 15 -6 16 -34 21 -43 7z"/>
</g>
</svg>
